<?xml version="1.0"?><svg data-name="1" id="_1" viewBox="0 0 600 600" xmlns="http://www.w3.org/2000/svg"><title/><path d="M467.266,29.79a53.38,53.38,0,0,0-19.711-10.314C407.117,8.2,249.886,8.01,179.65,23.035,157.716,31.7,89.046,139.678,71.516,167.682a12.062,12.062,0,0,0,.17,13.059l33.825,51.112a27.032,27.032,0,0,1,4.261,11.426l5.589,42.95a9.062,9.062,0,0,0,5.794,7.311l69.554,26.174A41.049,41.049,0,0,1,210.4,335.347l13.429,20.128a3.361,3.361,0,0,1-4.876,4.5L200.33,345.306a10.1,10.1,0,0,0-3.068-1.652l-11.75-3.9a4.92,4.92,0,0,0-6.064,2.839l-13.669,33.769a6.926,6.926,0,0,1-8.467,4.019l-28.851-10.615a6.927,6.927,0,0,1-4.468-8.973l10.654-29.456a7.172,7.172,0,0,0-5.069-9.413L96.005,313.86A13.137,13.137,0,0,1,86.16,303.5l-7.942-42.448a27.023,27.023,0,0,0-14.69-19.305l-5.954-2.912a12.066,12.066,0,0,0-17.237,9.029C34.626,285.614,27.288,359.9,24.843,385.3a36.434,36.434,0,0,0,2.438,17.04c9.488,23.719,38.238,87.879,64.746,130.57A17.946,17.946,0,0,0,109.78,541.2c76.4-10.859,141.4-33.957,192.249-55.554a33.355,33.355,0,0,0,17.553-17.421c4.305-9.907,10.06-23.287,12.39-29.3a26.766,26.766,0,0,1,28.1-16.74l26.337,3.062a20.038,20.038,0,0,0,13.99-3.618L450.3,385.859A43.031,43.031,0,0,0,466.3,363.747l64.256-205.113a20.655,20.655,0,0,0-1.591-16.092ZM381,233.44l-71.24,173.285a4.983,4.983,0,0,1-6.181,2.731l-31.653-13.248a4.981,4.981,0,0,1-3.009-6.577l59.3-146.957a15.059,15.059,0,0,0-3.844-16.784L258,169.032a7.007,7.007,0,0,0-11.2,2.56l-48.408,121.6a4.981,4.981,0,0,1-6.266,2.833l-33.306-13.14a4.981,4.981,0,0,1-2.965-6.578L224.981,94.688a11.973,11.973,0,0,1,19.562-3.948l133.3,126.068A15.056,15.056,0,0,1,381,233.44Zm84.107-110.331-22.59,11.5A3.446,3.446,0,0,1,437.54,132l-1.735-12.947a12.877,12.877,0,0,1,2.883-9.97L451.212,94.1a3.911,3.911,0,0,1,6.276.372l10.834,16.609A8.371,8.371,0,0,1,465.109,123.109Z" style="fill:#333"/><path d="M150.1,588.6c43.772-2.472,175.213-11.5,237.545-33.444a79.36,79.36,0,0,0,23.871-13.4c18.672-15.252,63.823-51.689,82.522-87.992a12.369,12.369,0,0,0,.361-10.591l-12.649-29.133a7.163,7.163,0,0,0-12.062-1.754C388.114,509.576,171.6,555.475,123.89,564.723a5.378,5.378,0,0,0-2.91,8.944l4.788,5.147A30.845,30.845,0,0,0,150.1,588.6Z" style="fill:#333"/><path d="M573.7,219.278l-15.074-47.71a4.7,4.7,0,0,0-8.93-.121l-53.6,203.092a12.324,12.324,0,0,0,.625,9.543L514.8,420.241a5.893,5.893,0,0,0,10.811-.63l47.616-177.8A35.108,35.108,0,0,0,573.7,219.278Z" style="fill:#333"/></svg>